<svg width="312" height="312" viewBox="0 0 312 312" fill="none" xmlns="http://www.w3.org/2000/svg">
<circle cx="156" cy="156" r="156" fill="#EE257C"/>
<path d="M70.2937 160.821C63.9726 160.821 58.8418 158.837 54.9014 154.869C50.9883 150.874 49.0318 145.565 49.0318 138.943V137.712C49.0318 133.279 49.8801 129.325 51.5767 125.85C53.3006 122.347 55.7086 119.624 58.8008 117.682C61.8929 115.739 65.3408 114.767 69.1444 114.767C75.1918 114.767 79.8574 116.696 83.1411 120.555C86.4521 124.413 88.1076 129.872 88.1076 136.932V140.955H59.0881C59.3891 144.621 60.6068 147.522 62.7412 149.656C64.9029 151.791 67.612 152.858 70.8683 152.858C75.4381 152.858 79.1596 151.011 82.0328 147.317L87.4098 152.448C85.6312 155.102 83.2505 157.168 80.2678 158.645C77.3125 160.096 73.9878 160.821 70.2937 160.821ZM69.1033 122.771C66.3669 122.771 64.1504 123.729 62.4539 125.644C60.7847 127.56 59.7175 130.228 59.2523 133.648H78.2566V132.91C78.0377 129.571 77.1483 127.054 75.5886 125.357C74.0288 123.633 71.8671 122.771 69.1033 122.771ZM119.138 124.7C117.825 124.482 116.47 124.372 115.075 124.372C110.505 124.372 107.427 126.123 105.84 129.626V160H95.8653V115.588H105.388L105.634 120.555C108.042 116.696 111.381 114.767 115.65 114.767C117.072 114.767 118.249 114.959 119.179 115.342L119.138 124.7ZM150.744 160C150.306 159.152 149.923 157.77 149.595 155.854C146.42 159.165 142.535 160.821 137.938 160.821C133.477 160.821 129.838 159.548 127.019 157.004C124.201 154.459 122.792 151.312 122.792 147.563C122.792 142.829 124.543 139.203 128.045 136.686C131.575 134.141 136.61 132.869 143.15 132.869H149.266V129.954C149.266 127.656 148.623 125.822 147.337 124.454C146.051 123.059 144.094 122.361 141.467 122.361C139.196 122.361 137.335 122.935 135.885 124.085C134.435 125.207 133.71 126.643 133.71 128.395H123.736C123.736 125.959 124.543 123.688 126.157 121.581C127.772 119.447 129.961 117.777 132.725 116.573C135.516 115.369 138.622 114.767 142.042 114.767C147.241 114.767 151.387 116.081 154.479 118.708C157.571 121.307 159.158 124.974 159.24 129.708V149.738C159.24 153.734 159.801 156.922 160.923 159.302V160H150.744ZM139.785 152.817C141.755 152.817 143.602 152.338 145.326 151.38C147.077 150.423 148.391 149.136 149.266 147.522V139.149H143.889C140.195 139.149 137.418 139.792 135.557 141.078C133.696 142.364 132.766 144.184 132.766 146.537C132.766 148.452 133.395 149.985 134.654 151.134C135.94 152.256 137.65 152.817 139.785 152.817ZM194.581 147.932C194.581 146.154 193.842 144.799 192.365 143.869C190.914 142.939 188.493 142.118 185.099 141.406C181.706 140.695 178.874 139.792 176.603 138.697C171.623 136.289 169.132 132.8 169.132 128.23C169.132 124.399 170.747 121.198 173.976 118.626C177.205 116.053 181.309 114.767 186.29 114.767C191.598 114.767 195.881 116.081 199.137 118.708C202.421 121.335 204.063 124.741 204.063 128.928H194.088C194.088 127.013 193.377 125.426 191.954 124.167C190.531 122.881 188.643 122.238 186.29 122.238C184.101 122.238 182.308 122.744 180.913 123.756C179.544 124.769 178.86 126.123 178.86 127.82C178.86 129.352 179.503 130.543 180.79 131.391C182.076 132.239 184.675 133.101 188.588 133.977C192.501 134.825 195.566 135.851 197.783 137.055C200.026 138.232 201.682 139.655 202.749 141.324C203.844 142.993 204.391 145.018 204.391 147.399C204.391 151.394 202.735 154.637 199.424 157.127C196.113 159.59 191.776 160.821 186.413 160.821C182.773 160.821 179.531 160.164 176.685 158.851C173.839 157.537 171.623 155.731 170.035 153.433C168.448 151.134 167.655 148.658 167.655 146.003H177.342C177.479 148.357 178.368 150.176 180.01 151.462C181.652 152.721 183.827 153.351 186.536 153.351C189.163 153.351 191.161 152.858 192.529 151.873C193.897 150.86 194.581 149.547 194.581 147.932ZM232.672 160.821C226.351 160.821 221.22 158.837 217.279 154.869C213.366 150.874 211.41 145.565 211.41 138.943V137.712C211.41 133.279 212.258 129.325 213.955 125.85C215.679 122.347 218.087 119.624 221.179 117.682C224.271 115.739 227.719 114.767 231.522 114.767C237.57 114.767 242.235 116.696 245.519 120.555C248.83 124.413 250.486 129.872 250.486 136.932V140.955H221.466C221.767 144.621 222.985 147.522 225.119 149.656C227.281 151.791 229.99 152.858 233.246 152.858C237.816 152.858 241.538 151.011 244.411 147.317L249.788 152.448C248.009 155.102 245.629 157.168 242.646 158.645C239.691 160.096 236.366 160.821 232.672 160.821ZM231.481 122.771C228.745 122.771 226.528 123.729 224.832 125.644C223.163 127.56 222.096 130.228 221.63 133.648H240.635V132.91C240.416 129.571 239.526 127.054 237.967 125.357C236.407 123.633 234.245 122.771 231.481 122.771Z" fill="white"/>
<path d="M57.1906 195.109H51.5655V199.323H58.1406V201.223H49.1857V187.527H58.0748V189.446H51.5655V193.227H57.1906V195.109ZM66.8137 192.475L69.692 187.527H72.4387L68.2999 194.318L72.5327 201.223H69.7579L66.8137 196.2L63.8601 201.223H61.0946L65.3369 194.318L61.1886 187.527H63.9353L66.8137 192.475ZM78.6943 196.134V201.223H76.3145V187.527H81.5538C83.0839 187.527 84.2974 187.925 85.1941 188.722C86.0971 189.518 86.5486 190.572 86.5486 191.882C86.5486 193.224 86.1065 194.268 85.2223 195.015C84.3444 195.761 83.1122 196.134 81.5256 196.134H78.6943ZM78.6943 194.224H81.5538C82.4004 194.224 83.0463 194.027 83.4915 193.632C83.9368 193.23 84.1594 192.654 84.1594 191.901C84.1594 191.161 83.9336 190.572 83.4821 190.133C83.0306 189.687 82.4098 189.459 81.6197 189.446H78.6943V194.224ZM98.6644 195.109H93.0394V199.323H99.6145V201.223H90.6596V187.527H99.5486V189.446H93.0394V193.227H98.6644V195.109ZM114.025 196.764C113.887 198.225 113.348 199.367 112.408 200.188C111.467 201.003 110.216 201.411 108.654 201.411C107.563 201.411 106.601 201.154 105.767 200.64C104.939 200.119 104.299 199.382 103.848 198.429C103.396 197.476 103.161 196.369 103.142 195.109V193.829C103.142 192.538 103.371 191.399 103.829 190.415C104.287 189.43 104.942 188.672 105.795 188.139C106.654 187.605 107.645 187.339 108.767 187.339C110.279 187.339 111.495 187.75 112.417 188.571C113.339 189.393 113.875 190.553 114.025 192.052H111.655C111.542 191.067 111.254 190.358 110.79 189.926C110.332 189.487 109.658 189.267 108.767 189.267C107.733 189.267 106.936 189.647 106.378 190.405C105.826 191.158 105.544 192.265 105.531 193.726V194.939C105.531 196.419 105.795 197.548 106.322 198.326C106.855 199.103 107.632 199.492 108.654 199.492C109.589 199.492 110.291 199.282 110.761 198.862C111.232 198.442 111.53 197.742 111.655 196.764H114.025ZM127.797 189.446H123.526V201.223H121.165V189.446H116.932V187.527H127.797V189.446ZM142.914 195.946H140.261V201.223H137.881V187.527H142.697C144.277 187.527 145.497 187.881 146.356 188.59C147.215 189.299 147.645 190.324 147.645 191.666C147.645 192.581 147.422 193.35 146.977 193.97C146.538 194.585 145.924 195.058 145.133 195.391L148.209 201.1V201.223H145.66L142.914 195.946ZM140.261 194.036H142.707C143.509 194.036 144.136 193.836 144.588 193.434C145.039 193.027 145.265 192.472 145.265 191.769C145.265 191.036 145.055 190.468 144.635 190.067C144.221 189.665 143.6 189.459 142.772 189.446H140.261V194.036ZM159.93 195.109H154.305V199.323H160.88V201.223H151.925V187.527H160.814V189.446H154.305V193.227H159.93V195.109ZM171.999 197.695C171.999 197.093 171.786 196.629 171.359 196.303C170.939 195.977 170.177 195.648 169.073 195.316C167.97 194.983 167.092 194.613 166.44 194.206C165.192 193.422 164.568 192.4 164.568 191.139C164.568 190.035 165.016 189.126 165.913 188.411C166.816 187.696 167.985 187.339 169.421 187.339C170.375 187.339 171.224 187.515 171.971 187.866C172.717 188.217 173.303 188.719 173.73 189.371C174.156 190.017 174.369 190.735 174.369 191.525H171.999C171.999 190.81 171.773 190.252 171.322 189.85C170.876 189.443 170.237 189.239 169.403 189.239C168.625 189.239 168.02 189.405 167.587 189.738C167.161 190.07 166.948 190.534 166.948 191.13C166.948 191.631 167.18 192.052 167.644 192.39C168.108 192.723 168.873 193.049 169.939 193.368C171.005 193.682 171.861 194.043 172.507 194.45C173.153 194.852 173.626 195.316 173.927 195.842C174.228 196.363 174.379 196.974 174.379 197.677C174.379 198.818 173.94 199.727 173.062 200.404C172.19 201.075 171.005 201.411 169.506 201.411C168.515 201.411 167.603 201.229 166.769 200.865C165.941 200.495 165.295 199.987 164.831 199.342C164.373 198.696 164.144 197.943 164.144 197.084H166.524C166.524 197.862 166.781 198.464 167.296 198.89C167.81 199.316 168.547 199.53 169.506 199.53C170.334 199.53 170.955 199.363 171.369 199.031C171.789 198.692 171.999 198.247 171.999 197.695ZM180.869 196.134V201.223H178.49V187.527H183.729C185.259 187.527 186.472 187.925 187.369 188.722C188.272 189.518 188.724 190.572 188.724 191.882C188.724 193.224 188.282 194.268 187.397 195.015C186.519 195.761 185.287 196.134 183.701 196.134H180.869ZM180.869 194.224H183.729C184.575 194.224 185.221 194.027 185.667 193.632C186.112 193.23 186.334 192.654 186.334 191.901C186.334 191.161 186.109 190.572 185.657 190.133C185.206 189.687 184.585 189.459 183.795 189.446H180.869V194.224ZM200.84 195.109H195.214V199.323H201.79V201.223H192.835V187.527H201.724V189.446H195.214V193.227H200.84V195.109ZM216.201 196.764C216.063 198.225 215.523 199.367 214.583 200.188C213.642 201.003 212.391 201.411 210.829 201.411C209.738 201.411 208.776 201.154 207.942 200.64C207.114 200.119 206.474 199.382 206.023 198.429C205.571 197.476 205.336 196.369 205.317 195.109V193.829C205.317 192.538 205.546 191.399 206.004 190.415C206.462 189.43 207.117 188.672 207.97 188.139C208.829 187.605 209.82 187.339 210.942 187.339C212.454 187.339 213.67 187.75 214.592 188.571C215.514 189.393 216.05 190.553 216.201 192.052H213.83C213.717 191.067 213.429 190.358 212.965 189.926C212.507 189.487 211.833 189.267 210.942 189.267C209.908 189.267 209.111 189.647 208.553 190.405C208.001 191.158 207.719 192.265 207.707 193.726V194.939C207.707 196.419 207.97 197.548 208.497 198.326C209.03 199.103 209.807 199.492 210.829 199.492C211.764 199.492 212.466 199.282 212.936 198.862C213.407 198.442 213.705 197.742 213.83 196.764H216.201ZM229.972 189.446H225.701V201.223H223.34V189.446H219.107V187.527H229.972V189.446ZM239.473 197.526C239.473 196.893 239.645 196.313 239.99 195.786C240.335 195.253 241.016 194.623 242.032 193.895C241.499 193.224 241.125 192.654 240.912 192.183C240.705 191.713 240.602 191.258 240.602 190.819C240.602 189.747 240.928 188.9 241.58 188.28C242.232 187.653 243.11 187.339 244.214 187.339C245.211 187.339 246.026 187.634 246.659 188.223C247.299 188.806 247.619 189.531 247.619 190.396C247.619 190.967 247.475 191.493 247.186 191.976C246.898 192.453 246.424 192.929 245.766 193.406L244.835 194.083L247.478 197.206C247.86 196.454 248.052 195.617 248.052 194.695H250.036C250.036 196.382 249.641 197.764 248.851 198.843L250.864 201.223H248.212L247.44 200.31C246.462 201.044 245.296 201.411 243.941 201.411C242.587 201.411 241.502 201.053 240.686 200.339C239.877 199.617 239.473 198.68 239.473 197.526ZM244.007 199.586C244.778 199.586 245.499 199.329 246.17 198.815L243.179 195.287L242.888 195.494C242.135 196.065 241.759 196.717 241.759 197.451C241.759 198.084 241.963 198.598 242.37 198.993C242.778 199.389 243.323 199.586 244.007 199.586ZM242.746 190.763C242.746 191.29 243.069 191.951 243.715 192.748L244.759 192.033L245.051 191.798C245.44 191.453 245.634 191.011 245.634 190.471C245.634 190.114 245.499 189.81 245.23 189.559C244.96 189.302 244.618 189.173 244.204 189.173C243.759 189.173 243.405 189.324 243.141 189.625C242.878 189.926 242.746 190.305 242.746 190.763ZM56.8707 216.034H51.5655L50.4556 219.223H47.9817L53.1552 205.527H55.2905L60.4734 219.223H57.9901L56.8707 216.034ZM52.2334 214.115H56.2029L54.2181 208.434L52.2334 214.115ZM78.0358 215.695C78.0358 215.093 77.8226 214.629 77.3962 214.303C76.9761 213.977 76.2141 213.648 75.1105 213.316C74.0068 212.983 73.1288 212.613 72.4767 212.206C71.2288 211.422 70.6048 210.4 70.6048 209.139C70.6048 208.035 71.0532 207.126 71.9499 206.411C72.8529 205.696 74.0225 205.339 75.4585 205.339C76.4117 205.339 77.2614 205.515 78.0076 205.866C78.7539 206.217 79.3402 206.719 79.7666 207.371C80.193 208.017 80.4062 208.735 80.4062 209.525H78.0358C78.0358 208.81 77.8101 208.252 77.3586 207.85C76.9133 207.443 76.2737 207.239 75.4397 207.239C74.6621 207.239 74.0569 207.405 73.6243 207.738C73.1978 208.07 72.9846 208.534 72.9846 209.13C72.9846 209.631 73.2166 210.052 73.6807 210.39C74.1447 210.723 74.9098 211.049 75.9758 211.368C77.0419 211.682 77.8979 212.043 78.5438 212.45C79.1897 212.852 79.6631 213.316 79.9641 213.842C80.2652 214.363 80.4157 214.974 80.4157 215.677C80.4157 216.818 79.9767 217.727 79.0988 218.404C78.2271 219.075 77.0419 219.411 75.5432 219.411C74.5523 219.411 73.6399 219.229 72.8059 218.865C71.9781 218.495 71.3322 217.987 70.8682 217.342C70.4104 216.696 70.1815 215.943 70.1815 215.084H72.5613C72.5613 215.862 72.8184 216.464 73.3327 216.89C73.8469 217.316 74.5837 217.53 75.5432 217.53C76.3709 217.53 76.9917 217.363 77.4056 217.031C77.8258 216.692 78.0358 216.247 78.0358 215.695ZM92.1928 216.034H86.8876L85.7777 219.223H83.3038L88.4773 205.527H90.6125L95.7955 219.223H93.3122L92.1928 216.034ZM87.5555 214.115H91.525L89.5402 208.434L87.5555 214.115ZM107.272 213.419H101.759V219.223H99.3797V205.527H108.081V207.446H101.759V211.519H107.272V213.419ZM119.999 213.109H114.374V217.323H120.949V219.223H111.994V205.527H120.883V207.446H114.374V211.227H119.999V213.109ZM139.734 213.109H134.109V217.323H140.684V219.223H131.729V205.527H140.618V207.446H134.109V211.227H139.734V213.109ZM144.645 219.223V205.527H148.689C149.9 205.527 150.972 205.797 151.906 206.336C152.847 206.875 153.574 207.64 154.089 208.631C154.603 209.622 154.86 210.757 154.86 212.036V212.723C154.86 214.021 154.6 215.162 154.079 216.147C153.565 217.131 152.828 217.89 151.869 218.423C150.916 218.956 149.821 219.223 148.586 219.223H144.645ZM147.024 207.446V217.323H148.577C149.824 217.323 150.781 216.934 151.445 216.156C152.116 215.372 152.458 214.25 152.471 212.789V212.027C152.471 210.541 152.148 209.406 151.502 208.622C150.856 207.838 149.919 207.446 148.689 207.446H147.024ZM169.271 205.527V214.679C169.271 216.134 168.804 217.288 167.869 218.141C166.941 218.988 165.703 219.411 164.154 219.411C162.586 219.411 161.341 218.994 160.42 218.16C159.498 217.32 159.037 216.156 159.037 214.67V205.527H161.407V214.689C161.407 215.604 161.639 216.304 162.103 216.787C162.567 217.269 163.251 217.511 164.154 217.511C165.985 217.511 166.901 216.545 166.901 214.614V205.527H169.271ZM184.293 214.764C184.155 216.225 183.616 217.367 182.675 218.188C181.735 219.003 180.484 219.411 178.922 219.411C177.831 219.411 176.869 219.154 176.035 218.64C175.207 218.119 174.567 217.382 174.116 216.429C173.664 215.476 173.429 214.369 173.41 213.109V211.829C173.41 210.538 173.639 209.399 174.097 208.415C174.555 207.43 175.21 206.672 176.063 206.139C176.922 205.605 177.913 205.339 179.035 205.339C180.546 205.339 181.763 205.75 182.685 206.571C183.607 207.393 184.143 208.553 184.293 210.052H181.923C181.81 209.067 181.522 208.358 181.058 207.926C180.6 207.487 179.926 207.267 179.035 207.267C178 207.267 177.204 207.647 176.646 208.405C176.094 209.158 175.812 210.265 175.799 211.726V212.939C175.799 214.419 176.063 215.548 176.589 216.326C177.123 217.103 177.9 217.492 178.922 217.492C179.857 217.492 180.559 217.282 181.029 216.862C181.5 216.442 181.797 215.742 181.923 214.764H184.293ZM196.118 216.034H190.812L189.702 219.223H187.228L192.402 205.527H194.537L199.72 219.223H197.237L196.118 216.034ZM191.48 214.115H195.45L193.465 208.434L191.48 214.115ZM212.071 207.446H207.801V219.223H205.44V207.446H201.207V205.527H212.071V207.446ZM218.411 219.223H216.041V205.527H218.411V219.223ZM234.29 212.732C234.29 214.074 234.058 215.253 233.594 216.269C233.13 217.279 232.465 218.056 231.599 218.602C230.74 219.141 229.75 219.411 228.627 219.411C227.517 219.411 226.526 219.141 225.655 218.602C224.789 218.056 224.118 217.282 223.642 216.279C223.171 215.275 222.933 214.118 222.927 212.808V212.036C222.927 210.701 223.162 209.522 223.632 208.5C224.109 207.477 224.777 206.697 225.636 206.157C226.501 205.612 227.492 205.339 228.608 205.339C229.724 205.339 230.712 205.609 231.571 206.148C232.437 206.681 233.105 207.452 233.575 208.462C234.045 209.465 234.283 210.635 234.29 211.97V212.732ZM231.91 212.017C231.91 210.5 231.621 209.337 231.045 208.528C230.474 207.719 229.662 207.314 228.608 207.314C227.58 207.314 226.774 207.719 226.191 208.528C225.614 209.33 225.319 210.469 225.307 211.942V212.732C225.307 214.237 225.598 215.401 226.181 216.222C226.771 217.044 227.586 217.454 228.627 217.454C229.681 217.454 230.49 217.053 231.054 216.25C231.625 215.448 231.91 214.275 231.91 212.732V212.017ZM249.547 219.223H247.167L241.063 209.506V219.223H238.683V205.527H241.063L247.186 215.282V205.527H249.547V219.223Z" fill="white"/>
<rect x="256.642" y="92.2155" width="3.73481" height="90.5691" fill="white"/>
</svg>
