<svg width="26" height="22" viewBox="0 0 26 22" fill="none" xmlns="http://www.w3.org/2000/svg">
<path d="M26 6.24669V17.7236C26 19.7078 24.3921 21.3157 22.4079 21.3157H3.59211C2.63942 21.3157 1.72575 20.9373 1.0521 20.2636C0.378453 19.59 0 18.6763 0 17.7236V6.24669L12.5881 13.1709C12.8447 13.3119 13.156 13.3119 13.4119 13.1709L26 6.24601V6.24669ZM22.4079 0.789429C23.3456 0.789516 24.2461 1.15627 24.917 1.81135C25.5879 2.46643 25.9761 3.35789 25.9986 4.29532L13 11.4453L0.00136832 4.29464L0.00273697 4.23306C0.0410545 3.30682 0.435984 2.43125 1.10494 1.78945C1.77389 1.14766 2.66507 0.789343 3.59211 0.789429H22.4079Z" fill="#30357D"/>
</svg>
