<svg width="23" height="26" viewBox="0 0 23 26" fill="none" xmlns="http://www.w3.org/2000/svg">
<path d="M0.620302 22.5751L4.45789 25.4017C5.02682 25.8355 5.70712 25.9105 6.3451 25.8171C9.15349 25.3162 11.6153 23.537 13.5946 21.7911C16.8022 18.6464 19.6209 14.9182 21.1121 10.6954C21.6634 8.93563 22.2853 6.70226 21.9257 4.88188C21.8159 4.19332 21.5302 3.54383 20.9788 3.17094L17.1375 0.319251C16.3551 -0.169406 15.7131 0.134237 15.3699 0.888591L13.4306 6.39279C13.2365 7.03962 13.4947 7.66383 13.9814 8.03371L15.3967 9.08433C15.4882 9.17738 15.5542 9.28894 15.5745 9.41796C15.3718 11.3184 14.1881 13.2171 13.0938 14.5651C11.9996 15.913 10.8714 17.687 9.16043 18.3201C8.95114 18.4132 8.68693 18.474 8.50934 18.3519L6.85933 17.1046C6.30944 16.8028 5.56833 16.7249 5.08559 17.1094L5.06042 17.1131L0.626132 20.6978C-0.0209857 21.2501 0.0321607 22.1249 0.620302 22.5751Z" fill="#30357D"/>
</svg>
